<svg xmlns="http://www.w3.org/2000/svg" xmlns:xlink="http://www.w3.org/1999/xlink" viewBox="0 0 1898.5 1027"><defs><style>.cls-1,.cls-4{fill:none;}.cls-2{fill:#faebd7;}.cls-3{clip-path:url(#clip-path);}.cls-4{stroke:#84817e;stroke-miterlimit:10;}</style><clipPath id="clip-path" transform="translate(2.13)"><rect class="cls-1" width="1894.25" height="1027" rx="23"/></clipPath></defs><g id="Layer_2" data-name="Layer 2"><g id="Layer_1-2" data-name="Layer 1"><rect class="cls-2" x="2.13" width="1894.25" height="1027" rx="23"/><g class="cls-3"><line class="cls-4" x1="69.5" x2="69.5" y2="1027"/><line class="cls-4" x1="146" x2="146" y2="1027"/><line class="cls-4" x1="222.5" x2="222.5" y2="1027"/><line class="cls-4" x1="299" x2="299" y2="1027"/><line class="cls-4" x1="375.5" x2="375.5" y2="1027"/><line class="cls-4" x1="452" x2="452" y2="1027"/><line class="cls-4" x1="528.5" x2="528.5" y2="1027"/><line class="cls-4" x1="605" x2="605" y2="1027"/><line class="cls-4" x1="681.5" x2="681.5" y2="1027"/><line class="cls-4" x1="758" x2="758" y2="1027"/><line class="cls-4" x1="834.5" x2="834.5" y2="1027"/><line class="cls-4" x1="911" x2="911" y2="1027"/><line class="cls-4" x1="987.5" x2="987.5" y2="1027"/><line class="cls-4" x1="1064" x2="1064" y2="1027"/><line class="cls-4" x1="1140.5" x2="1140.5" y2="1027"/><line class="cls-4" x1="1217" x2="1217" y2="1027"/><line class="cls-4" x1="1293.5" x2="1293.5" y2="1027"/><line class="cls-4" x1="1370" x2="1370" y2="1027"/><line class="cls-4" x1="1446.5" x2="1446.5" y2="1027"/><line class="cls-4" x1="1523" x2="1523" y2="1027"/><line class="cls-4" x1="1599.5" x2="1599.5" y2="1027"/><line class="cls-4" x1="1676" x2="1676" y2="1027"/><line class="cls-4" x1="1752.5" x2="1752.5" y2="1027"/><line class="cls-4" x1="1829" x2="1829" y2="1027"/><line class="cls-4" y1="56" x2="1891" y2="56"/><line class="cls-4" x1="0.5" y1="117" x2="1891.5" y2="117"/><line class="cls-4" x1="1" y1="178" x2="1892" y2="178"/><line class="cls-4" x1="1.5" y1="239" x2="1892.5" y2="239"/><line class="cls-4" x1="2" y1="300" x2="1893" y2="300"/><line class="cls-4" x1="2.5" y1="361" x2="1893.5" y2="361"/><line class="cls-4" x1="3" y1="422" x2="1894" y2="422"/><line class="cls-4" x1="3.5" y1="483" x2="1894.5" y2="483"/><line class="cls-4" x1="4" y1="544" x2="1895" y2="544"/><line class="cls-4" x1="4.5" y1="605" x2="1895.5" y2="605"/><line class="cls-4" x1="5" y1="666" x2="1896" y2="666"/><line class="cls-4" x1="5.5" y1="727" x2="1896.5" y2="727"/><line class="cls-4" x1="6" y1="788" x2="1897" y2="788"/><line class="cls-4" x1="6.5" y1="849" x2="1897.5" y2="849"/><line class="cls-4" x1="7" y1="910" x2="1898" y2="910"/><line class="cls-4" x1="7.5" y1="971" x2="1898.5" y2="971"/></g></g></g></svg>