<svg xmlns="http://www.w3.org/2000/svg" viewBox="0 0 445.5 445.49"><defs><style>.cls-1{fill:#a5dc74;}.cls-2{font-size:42.88px;font-family:MicrosoftSansSerif, Microsoft Sans Serif;}.cls-2,.cls-3{stroke:#000;stroke-miterlimit:10;stroke-width:2px;}.cls-4{fill:#a4db74;}</style></defs><g id="Layer_2" data-name="Layer 2"><g id="Layer_1-2" data-name="Layer 1"><circle class="cls-1" cx="222.75" cy="222.75" r="214.78"/><text class="cls-2" transform="translate(102.42 128.72) rotate(-49.8)"> </text><text class="cls-2" transform="translate(110.87 118.72) rotate(-44.22)">•</text><text class="cls-2" transform="translate(122.96 107.19) rotate(-38.65)"> </text><text class="cls-2" transform="translate(132.56 98.73) rotate(-30.25)">U</text><text class="cls-2" transform="matrix(0.95, -0.32, 0.32, 0.95, 160.27, 82.81)">S</text><text class="cls-2" transform="translate(188.39 73.37) rotate(-7.59)">A</text><text class="cls-2" transform="translate(217.79 69.56) rotate(3.57)">B</text><text class="cls-2" transform="translate(247.6 72.09) rotate(11.77)">I</text><text class="cls-2" transform="translate(260.83 74.53) rotate(18.8)">L</text><text class="cls-2" transform="translate(284.65 83.14) rotate(26.11)">I</text><text class="cls-2" transform="translate(296.83 88.68) rotate(33.85)">T</text><text class="cls-2" transform="translate(319.52 103.9) rotate(44.56)">Y</text><text class="cls-2" transform="matrix(0.61, 0.79, -0.79, 0.61, 340.36, 125.4)"> </text><text class="cls-2" transform="translate(348.5 135.38) rotate(60.09)">T</text><text class="cls-2" transform="translate(362.13 159.04) rotate(70.73)">E</text><text class="cls-2" transform="translate(371.81 187.05) rotate(81.89)">S</text><text class="cls-2" transform="matrix(-0.05, 1, -1, -0.05, 375.79, 216.47)">T</text><text class="cls-2" transform="matrix(-0.17, 0.99, -0.99, -0.17, 373.92, 244)">I</text><text class="cls-2" transform="translate(372.18 257.23) rotate(108.72)">N</text><text class="cls-2" transform="matrix(-0.52, 0.86, -0.86, -0.52, 361.97, 287.46)">G</text><text class="cls-2" transform="translate(343.27 316.53) rotate(130.08)"> </text><text class="cls-2" transform="matrix(-0.72, 0.7, -0.7, -0.72, 334.86, 326.53)">•</text><text class="cls-2" transform="translate(322.79 338.09) rotate(141.23)"> </text><text class="cls-2" transform="matrix(-0.86, 0.51, -0.51, -0.86, 313.22, 346.57)">U</text><text class="cls-2" transform="translate(285.49 362.57) rotate(161.13)">S</text><text class="cls-2" transform="matrix(-0.99, 0.13, -0.13, -0.99, 257.42, 372.06)">A</text><text class="cls-2" transform="translate(228.04 375.94) rotate(-176.55)">B</text><text class="cls-2" transform="translate(198.2 373.48) rotate(-168.23)">I</text><text class="cls-2" transform="matrix(-0.95, -0.32, 0.32, -0.95, 184.96, 371.05)">L</text><text class="cls-2" transform="translate(161.16 362.51) rotate(-154.02)">I</text><text class="cls-2" transform="translate(148.97 356.99) rotate(-146.28)">T</text><text class="cls-2" transform="translate(126.25 341.83) rotate(-135.57)">Y</text><text class="cls-2" transform="translate(105.34 320.35) rotate(-127.58)"> </text><text class="cls-2" transform="translate(97.19 310.41) rotate(-120.04)">T</text><text class="cls-2" transform="translate(83.5 286.76) rotate(-109.39)">E</text><text class="cls-2" transform="translate(73.76 258.77) rotate(-98.23)">S</text><text class="cls-2" transform="translate(69.72 229.37) rotate(-87.5)">T</text><text class="cls-2" transform="translate(71.54 201.75) rotate(-80.09)">I</text><text class="cls-2" transform="translate(73.24 188.63) rotate(-71.42)">N</text><text class="cls-2" transform="matrix(0.52, -0.86, 0.86, 0.52, 83.38, 158.37)">G</text><circle class="cls-3" cx="222.75" cy="222.75" r="88.96"/><circle class="cls-4" cx="222.75" cy="222.75" r="66.55"/><path class="cls-3" d="M225.09,217.37c-13.52-5.48-13.8-6.08-4.63-17.54a157.1,157.1,0,0,1,13.24-14.08c5.05-4.92,7.43-2.64,7.57,3.42a161.16,161.16,0,0,1-.19,18.26C239.66,222.88,239.17,223.07,225.09,217.37Z"/><path class="cls-3" d="M223.3,171c-10.41,10.44-18.1,19.27-24.5,29.34-5.74,9.06-12.49,1.2-17.57-1.4-5.88-3,.14-6.91,2.07-9.29C192.11,178.78,205.5,172,223.3,171Z"/><path class="cls-3" d="M258.65,185.11c12.39,13.36,14,26.51,16.08,41.36.49,3.49,0,7.92-5.84,8.13-5.46.2-14.9-.89-12.79-10.9C258.56,212,259.43,200.31,258.65,185.11Z"/><path class="cls-3" d="M219.21,233.67c12.7,5.15,13,5.64,4,15.65-4.68,5.2-9.92,14.9-15.82,12.56s-3-13-2.76-19.94C205,228.17,205.51,228.1,219.21,233.67Z"/><path class="cls-3" d="M187.36,260.6c-11.22-11.51-13.49-21.51-16.17-35.35-.59-3.09-2.53-8.78,4.07-8.61,5.23.14,14.05.81,13.46,9.27C188,236.57,186.6,247.2,187.36,260.6Z"/><path class="cls-3" d="M223.07,274.65c8.81-8.83,16.45-17,21.44-24.47,5.79-8.71,13-2.56,16.74,1.15,4.36,4.35-.17,7.91-2.9,9.59C247.15,267.82,238.24,274.57,223.07,274.65Z"/></g></g></svg>