<svg xmlns="http://www.w3.org/2000/svg" viewBox="0 0 538.73 241.21"><defs><style>.cls-1{fill:#ec3d65;}.cls-2{font-size:66.57px;fill:#faebd7;stroke:#faebd7;stroke-miterlimit:10;stroke-width:3px;font-family:MicrosoftSansSerif, Microsoft Sans Serif;letter-spacing:0.06em;}.cls-3{letter-spacing:0.06em;}</style></defs><g id="Layer_2" data-name="Layer 2"><g id="Layer_1-2" data-name="Layer 1"><path class="cls-1" d="M538.73,119.93V93a15,15,0,0,0-15-15l-133-1.47c-6.46,0-8.82-3.65-9.61-10.82-1.21-10.82-2.41-47.11-2.41-50.5C378.72,6.34,367.9,2,360.81,2,356.16,2,169.5,0,169.5,0a14.86,14.86,0,0,0-14.86,14.86V49.21c0,4.51.43,18,.43,20.13a7.33,7.33,0,0,1-.89,3.34,10,10,0,0,1-9,5.26H12.69A12.69,12.69,0,0,0,0,90.63v63.14a15.11,15.11,0,0,0,15.11,15.11H78.82l1.22,0a9.2,9.2,0,0,1,9.35,9.2v44a18.72,18.72,0,0,0,18.72,18.72s286.24.41,316.3.41c9.62,0,16.84-8.42,16.84-20.44,0-19-.81-34.56-.83-43.18a8.6,8.6,0,0,1,8.67-8.6c5.7,0,11.93-.11,11.93-.11h63.27c8.58,0,14.35-7,14.35-15.55Z"/><text class="cls-2" transform="translate(169.43 62.67)">USER<tspan class="cls-3"><tspan x="-154.64" y="77.94">EXPER—IENCE</tspan></tspan><tspan x="-65.26" y="155.87">DESIGN©</tspan></text></g></g></svg>