<svg xmlns="http://www.w3.org/2000/svg" viewBox="0 0 717.8 201.38"><defs><style>.cls-1{fill:#f2d20b;}.cls-2{font-size:78.64px;stroke:#000;stroke-miterlimit:10;stroke-width:4px;font-family:MicrosoftSansSerif, Microsoft Sans Serif;}.cls-2,.cls-4{letter-spacing:0.06em;}.cls-3{letter-spacing:0.61em;}.cls-5{letter-spacing:-0.15em;}</style></defs><g id="Layer_2" data-name="Layer 2"><g id="Layer_1-2" data-name="Layer 1"><path class="cls-1" d="M717.66,132.87c0-15.21-7.38-23.51-17.44-31.12-8.31-6.29-37.05-9.23-41.42-8.75-.16,0-.32,0-.49,0H443.56a6.7,6.7,0,0,1-6.71-6.7V56.09a6.7,6.7,0,0,0-6.7-6.71H417.6a6.7,6.7,0,0,1-6.7-6.7v-35A6.7,6.7,0,0,0,404.19,1H306S169.28,0,157.7,0c-15.35,0-65,1-65,1H23.52A23.52,23.52,0,0,0,0,24.48V86.62a22.62,22.62,0,0,0,22.62,22.62H47.81a21.24,21.24,0,0,1,21.24,21.24v46.35a24.48,24.48,0,0,0,24.48,24.48H659.4a4.58,4.58,0,0,1,.53,0c4.66.45,34.64-3,43-9.87,9.78-8.12,14.91-20.41,14.91-34.83C717.8,141.28,717.66,132.87,717.66,132.87Z"/><text class="cls-2" transform="translate(13.63 78.29)">E—COMM.<tspan class="cls-3"><tspan x="0" y="92.07">	</tspan><tspan class="cls-4" x="69.05" y="92.07">EXPERIENCES</tspan><tspan class="cls-5" x="681.24" y="92.07">	</tspan></tspan></text></g></g></svg>