<svg xmlns="http://www.w3.org/2000/svg" xmlns:xlink="http://www.w3.org/1999/xlink" viewBox="0 0 678.5 413"><defs><style>.cls-1{fill:#f57f05;}.cls-2,.cls-3{fill:#faebd7;stroke:#faebd7;}.cls-2,.cls-3,.cls-4{stroke-miterlimit:10;}.cls-2{stroke-width:3px;}.cls-3{stroke-width:4px;}.cls-4{fill:none;stroke-width:7px;stroke:url(#linear-gradient);}</style><linearGradient id="linear-gradient" x1="132.29" y1="116.75" x2="352.62" y2="116.75" gradientUnits="userSpaceOnUse"><stop offset="0.06" stop-color="#f57f05"/><stop offset="0.15" stop-color="#f5830e"/><stop offset="0.3" stop-color="#f68f25"/><stop offset="0.48" stop-color="#f7a34b"/><stop offset="0.7" stop-color="#f8be80"/><stop offset="0.93" stop-color="#fae1c3"/><stop offset="1" stop-color="#faebd7"/></linearGradient></defs><g id="Layer_2" data-name="Layer 2"><g id="Layer_1-2" data-name="Layer 1"><rect class="cls-1" width="678.5" height="413" rx="48.87"/><path class="cls-2" d="M113.8,144.1h-6.89V97.36L91.24,144.1H84.72L69.05,97.36V144.1h-6.9V89.15H73.06L87.94,135l15-45.81h10.9Z"/><path class="cls-3" d="M410.52,95.67H392.34V144.1H385V95.67H367V89.15h43.52Z"/><path class="cls-3" d="M431.17,144.1h-7.31V89.15h7.31Z"/><path class="cls-3" d="M472.7,88.21q11.54,0,18.89,7.8t7.34,20.62q0,12.81-7.34,20.61T472.7,145q-11.59,0-19-7.82t-7.39-20.59q0-12.82,7.39-20.62T472.7,88.21Zm-.08,50.61A17.35,17.35,0,0,0,486.13,133q5.28-5.85,5.27-16.34t-5.25-16.35a17.17,17.17,0,0,0-13.38-5.84,17.52,17.52,0,0,0-13.59,5.84q-5.3,5.85-5.3,16.35T459.16,133A17.33,17.33,0,0,0,472.62,138.82Z"/><path class="cls-3" d="M556.36,144.1H548.9l-28.79-43.37V144.1h-6.9V89.15h7.42l28.79,43.37V89.15h6.94Z"/><path class="cls-3" d="M616.35,140.86l-5.47,4.61-4.76-6q-6.52,6-16.35,6a17.43,17.43,0,0,1-12.5-4.68,15.13,15.13,0,0,1-4.93-11.36,13.6,13.6,0,0,1,3.15-8.92,33.84,33.84,0,0,1,9.6-7.46q-5.85-7.5-5.85-12.11a11.35,11.35,0,0,1,3.88-8.77,14,14,0,0,1,9.8-3.52,12.72,12.72,0,0,1,9.13,3.43,11,11,0,0,1,3.62,8.3,11.31,11.31,0,0,1-2.66,7.51,30.54,30.54,0,0,1-8.1,6.32L606,128a29,29,0,0,0,1.83-9.3h7.31a32.61,32.61,0,0,1-4.38,15.18Zm-14.21-6.44-13.38-16.76a28.59,28.59,0,0,0-6.93,5.3,8.82,8.82,0,0,0-2.18,6,10.56,10.56,0,0,0,2.91,7.37,9.46,9.46,0,0,0,7.29,3.17A16,16,0,0,0,602.14,134.42Zm-10.83-24.67a20.35,20.35,0,0,0,5.66-4.18,7.45,7.45,0,0,0,1.8-5,6,6,0,0,0-1.86-4.59,6.15,6.15,0,0,0-4.36-1.74A6.52,6.52,0,0,0,588,95.86a5.63,5.63,0,0,0-1.83,4.37q0,3,3.37,7.31Z"/><path class="cls-3" d="M70.36,234H63.05V179h7.31Z"/><path class="cls-3" d="M131.23,234h-7.46L95,190.61V234H88.09V179h7.42l28.78,43.37V179h6.94Z"/><path class="cls-3" d="M187.19,185.55H169V234H161.7V185.55h-18V179h43.52Z"/><path class="cls-3" d="M240.6,234h-41V179h39.7v6.53H206.9v16.79h30.33v6.52H206.9v18.59h33.7Z"/><path class="cls-3" d="M301.25,234h-7.88l-5.17-14.66a13.56,13.56,0,0,0-4.61-6.37,11.85,11.85,0,0,0-7.42-2.48H262.71V234h-7.27V179h24.33a36.65,36.65,0,0,1,10.42,1.24,11.86,11.86,0,0,1,6.59,5.21,16.25,16.25,0,0,1,2.55,9A14.1,14.1,0,0,1,296,204a15.65,15.65,0,0,1-9,5v.15q5.73,1.83,8.73,9.93Zm-38.54-30h16.23q6.78,0,9.84-2.14t3.06-7.38q0-9.37-11.77-9.37H262.71Z"/><path class="cls-3" d="M360.62,234h-8.21L346,217.26H323L317,234h-7.69l21.11-55h7.83ZM343.9,211.49,334.23,186,325,211.49Z"/><path class="cls-3" d="M394.31,234.91q-11.65,0-18.61-7.66t-6.95-20.75q0-13.08,6.95-20.75t18.61-7.66a24.35,24.35,0,0,1,15.26,4.83,17.65,17.65,0,0,1,7.08,12.75h-7.5a11.13,11.13,0,0,0-4.51-8.29,16.53,16.53,0,0,0-10.25-3.07q-8.37,0-13.24,5.75t-4.87,16.44q0,10.65,4.84,16.42t13.12,5.77q6.43,0,10.42-3.15a12.33,12.33,0,0,0,4.49-9h7.5q-.78,8.76-6.9,13.57T394.31,234.91Z"/><path class="cls-3" d="M470.4,185.55H452.22V234h-7.31V185.55h-18V179H470.4Z"/><path class="cls-3" d="M491.05,234h-7.31V179h7.31Z"/><path class="cls-3" d="M532.58,178.09q11.53,0,18.89,7.79t7.35,20.62q0,12.83-7.35,20.62t-18.89,7.79q-11.6,0-19-7.81t-7.39-20.6q0-12.83,7.39-20.62T532.58,178.09Zm-.08,50.6A17.35,17.35,0,0,0,546,222.84q5.26-5.84,5.27-16.34T546,190.16a17.18,17.18,0,0,0-13.38-5.85,17.53,17.53,0,0,0-13.59,5.85q-5.29,5.85-5.3,16.34T519,222.83A17.32,17.32,0,0,0,532.5,228.69Z"/><path class="cls-3" d="M616.24,234h-7.46L580,190.61V234h-6.9V179h7.42l28.79,43.37V179h6.94Z"/><path class="cls-3" d="M271,284.41A91.9,91.9,0,0,0,281.6,294.6a39.38,39.38,0,0,0,8.46,5.21v2.08a46.64,46.64,0,0,0-8.87,5.66,90.56,90.56,0,0,0-10.26,10.1h-3.56q4.33-9.3,9.1-14.28H63.21V298.7H276.47q-3.51-4.49-4.9-6.66t-4.11-7.63Z"/><path class="cls-3" d="M310.36,268.9h17.43q28,0,28,27.17,0,27.78-28,27.78H310.36Zm7.27,48.43h10q12,0,16.31-5.57t4.35-15.69q0-9.85-4.33-15.25t-16.33-5.4h-10Z"/><path class="cls-3" d="M411.38,323.85h-41v-55H410.1v6.52H377.68v16.79H408v6.53H377.68v18.59h33.7Z"/><path class="cls-3" d="M447,324.79q-11.62,0-17.38-5.21a18.23,18.23,0,0,1-6.05-13.38h7q.56,6.14,5.12,9.09a19.83,19.83,0,0,0,11,2.94q6.11,0,9.84-2.51a7.85,7.85,0,0,0,3.73-6.83,6.94,6.94,0,0,0-3.86-6.59q-3.87-2.07-13.29-4.07t-13.53-5.57a11.91,11.91,0,0,1-4.11-9.48,13.41,13.41,0,0,1,5.34-10.95Q436.11,268,445,268q9.3,0,15,4.31t6,12.18H458.9q-1.08-10-13.64-10c-4.05,0-7.18.77-9.41,2.29a7,7,0,0,0-3.33,6.07A5.75,5.75,0,0,0,435.2,288q2.67,1.73,10,3.33a94.83,94.83,0,0,1,11.64,3.19,18.63,18.63,0,0,1,7.39,4.89,12.57,12.57,0,0,1,3.07,8.9,14.66,14.66,0,0,1-5.64,11.77Q456,324.8,447,324.79Z"/><path class="cls-3" d="M490.24,323.85h-7.31v-55h7.31Z"/><path class="cls-3" d="M532,324.79q-11.85,0-19.21-7.76t-7.37-20.65q0-12.94,7.28-20.68T531.77,268q9.93,0,16.51,4.78a17.26,17.26,0,0,1,7.36,12.8h-7.53a10.78,10.78,0,0,0-4.8-8.34q-4.35-3-11.47-3-8.51,0-13.7,5.81T513,296.38q0,10.53,5.25,16.36a17.59,17.59,0,0,0,13.72,5.83q11.88,0,17.65-7.84v-8.36H535.06v-6.56h21.56v28h-5.14l-1.91-5.77Q544,324.79,532,324.79Z"/><path class="cls-3" d="M615.43,323.85H608l-28.79-43.37v43.37h-6.9v-55h7.42l28.79,43.37V268.9h6.94Z"/><rect class="cls-4" x="135.79" y="89.65" width="213.34" height="54.2" rx="23.35"/></g></g></svg>