<svg id="Layer_1" data-name="Layer 1" xmlns="http://www.w3.org/2000/svg" xmlns:xlink="http://www.w3.org/1999/xlink" viewBox="0 0 1628 746"><defs><style>.cls-1,.cls-4{fill:none;}.cls-2{fill:#faebd7;}.cls-3{clip-path:url(#clip-path);}.cls-4{stroke:#7a7a7a;stroke-miterlimit:10;stroke-width:2px;}</style><clipPath id="clip-path" transform="translate(-146 -167)"><path class="cls-1" d="M146,167H1401a373,373,0,0,1,373,373v0a373,373,0,0,1-373,373H146a0,0,0,0,1,0,0V167a0,0,0,0,1,0,0Z"/></clipPath></defs><path class="cls-2" d="M1401,913H146V167H1401c206,0,373,167,373,373h0C1774,746,1607,913,1401,913Z" transform="translate(-146 -167)"/><g class="cls-3"><line class="cls-4" x1="109" x2="109" y2="746"/><line class="cls-4" x1="214" x2="214" y2="746"/><line class="cls-4" x1="319" x2="319" y2="746"/><line class="cls-4" x1="424" x2="424" y2="746"/><line class="cls-4" x1="529" x2="529" y2="746"/><line class="cls-4" x1="634" x2="634" y2="746"/><line class="cls-4" x1="739" x2="739" y2="746"/><line class="cls-4" x1="844" x2="844" y2="746"/><line class="cls-4" x1="949" x2="949" y2="746"/><line class="cls-4" x1="1054" x2="1054" y2="746"/><line class="cls-4" x1="1159" x2="1159" y2="746"/><line class="cls-4" x1="1264" x2="1264" y2="746"/><line class="cls-4" x1="1369" x2="1369" y2="746"/><line class="cls-4" x1="1474" x2="1474" y2="746"/><line class="cls-4" x1="1579" x2="1579" y2="746"/><line class="cls-4" y1="69" x2="1464" y2="64"/><line class="cls-4" y1="161" x2="1558" y2="156"/><line class="cls-4" y1="253" x2="1606" y2="248"/><line class="cls-4" y1="345" x2="1627" y2="339"/><line class="cls-4" y1="437" x2="1623" y2="431"/><line class="cls-4" y1="529" x2="1596" y2="524"/><line class="cls-4" y1="621" x2="1538" y2="616"/><line class="cls-4" y1="713" x2="1419" y2="708"/></g></svg>